<?xml version="1.0" encoding="utf-8"?>
<!-- Generator: Adobe Illustrator 27.7.0, SVG Export Plug-In . SVG Version: 6.00 Build 0)  -->
<svg version="1.1" id="Layer_1" xmlns="http://www.w3.org/2000/svg" xmlns:xlink="http://www.w3.org/1999/xlink" x="0px" y="0px"
	 viewBox="0 0 1500 1500" style="enable-background:new 0 0 1500 1500;" xml:space="preserve">
<style type="text/css">
	.st0{fill:#FFFFFF;}
</style>
<g>
	<g>
		<path class="st0" d="M1161.82,437.66c-20.36-47-48.32-87.97-83.84-123c-35.52-34.98-76.78-62.7-123.78-83.06
			c-47-20.36-97.14-30.56-150.47-30.56H308.55V1298C375.5,1190.45,555,901.95,569.42,878.82H373.19
			c34.07-55.06,249.84-403.94,297.92-481.71h367.14c-11.19,10.99-22.34,21.97-33.46,32.88c-19,18.71-213.37,209.9-293.33,288.54
			h220.52c-43.33,40.27-226.26,210.36-274.46,255.09h146.21c53.32,0,103.46-10.16,150.47-30.52c47-20.4,88.26-47.83,123.78-82.28
			c35.52-34.49,63.48-75.25,83.84-122.26c20.36-47,30.56-97.14,30.56-150.43C1192.39,534.85,1182.19,484.71,1161.82,437.66z"/>
	</g>
</g>
</svg>
