<?xml version="1.0" encoding="utf-8"?>
<!-- Generator: Adobe Illustrator 27.7.0, SVG Export Plug-In . SVG Version: 6.00 Build 0)  -->
<svg version="1.1" id="Layer_1" xmlns="http://www.w3.org/2000/svg" xmlns:xlink="http://www.w3.org/1999/xlink" x="0px" y="0px"
	 viewBox="0 0 1500 1500" style="enable-background:new 0 0 1500 1500;" xml:space="preserve">
<style type="text/css">
	.st0{fill:#111827;}
</style>
<g>
	<g>
		<path class="st0" d="M1161.8,437.7c-20.4-47-48.3-88-83.8-123c-35.5-35-76.8-62.7-123.8-83.1S857.1,201,803.7,201H308.5v1097
			c67-107.6,246.5-396,260.9-419.2H373.2c34.1-55.1,249.8-403.9,297.9-481.7h367.1c-11.2,11-22.3,22-33.5,32.9
			c-19,18.7-213.4,209.9-293.3,288.5H932c-43.3,40.3-226.3,210.4-274.5,255.1h146.2c53.3,0,103.5-10.2,150.5-30.5
			c47-20.4,88.3-47.8,123.8-82.3c35.5-34.5,63.5-75.2,83.8-122.3c20.4-47,30.6-97.1,30.6-150.4
			C1192.4,534.8,1182.2,484.7,1161.8,437.7z"/>
	</g>
</g>
</svg>
