<?xml version="1.0" encoding="utf-8"?>
<!-- Generator: Adobe Illustrator 27.7.0, SVG Export Plug-In . SVG Version: 6.00 Build 0)  -->
<svg version="1.1" id="Layer_1" xmlns="http://www.w3.org/2000/svg" xmlns:xlink="http://www.w3.org/1999/xlink" x="0px" y="0px"
	 viewBox="0 0 1500 500" style="enable-background:new 0 0 1500 500;" xml:space="preserve">
<style type="text/css">
	.st0{fill:#111827;}
</style>
<g>
	<g>
		<path class="st0" d="M444.5,162.1c5.3,2.3,9.9,5.4,13.9,9.3c4,3.9,7.1,8.5,9.4,13.8s3.4,10.9,3.4,16.8s-1.1,11.6-3.4,16.8
			s-5.4,9.8-9.4,13.7s-8.6,6.9-13.9,9.2s-10.9,3.4-16.8,3.4H414l-13.3-24.6h27c2.6,0,5-0.5,7.3-1.5s4.2-2.4,5.9-4.2
			c1.6-1.8,3-4,4-6.5s1.5-5.3,1.5-8.3c0-2.6-0.5-5.1-1.5-7.4c-1-2.4-2.3-4.5-4-6.4s-3.6-3.4-5.9-4.6s-4.7-1.8-7.3-1.8h-31v101.5
			h-24.4V158.7h55.4C433.7,158.7,439.3,159.9,444.5,162.1z"/>
		<path class="st0" d="M555.5,241.1c-2.8,1.3-5.4,2.2-7.8,2.8c-2.4,0.6-5.3,1-8.8,1.1s-7.7,0.2-12.8,0.2c-5.1-0.1-11.7-0.1-19.7-0.1
			v36.3h-24.7V158.7h55.6c6,0,11.5,1.1,16.8,3.4c5.2,2.3,9.8,5.4,13.7,9.3c3.9,3.9,7,8.5,9.3,13.9c2.3,5.3,3.4,11,3.4,16.9
			c0,8.8-2.3,16.6-6.9,23.5C568.9,232.6,562.9,237.7,555.5,241.1z M506.4,220.6h30.9c5.3,0,9.7-1.8,13.3-5.5s5.4-8.6,5.4-14.8
			c0-2.6-0.5-5.1-1.5-7.4c-1-2.4-2.3-4.5-4-6.4s-3.7-3.4-6-4.5s-4.7-1.7-7.3-1.7h-30.9v39.8v0.2L506.4,220.6L506.4,220.6z
			 M583.4,281.5h-31.2l-18.8-23.1L554,245L583.4,281.5z"/>
		<path class="st0" d="M673.5,158.7l0.2,20.5H616l-0.2,81.9h57.7v20.3h-82.2V158.7H673.5z M659,232.5h-27.4l-11.4-22.8H659V232.5z"
			/>
		<path class="st0" d="M733.2,209.8c5.6,1.5,10.8,3.2,15.5,5.1c4.7,1.9,8.8,4.1,12.3,6.8s6.1,5.9,8.1,9.6s2.9,8.2,2.9,13.3v0.5
			c0,5.6-1.1,10.8-3.4,15.4c-2.3,4.7-5.4,8.7-9.5,12c-4,3.3-8.8,5.9-14.2,7.7c-5.4,1.8-11.4,2.7-17.8,2.7c-6,0-11.7-0.7-17.1-2.2
			c-5.4-1.5-10.4-3.4-14.8-5.7s-8.3-5.1-11.7-8.1c-3.3-3-5.9-6.1-7.6-9.4l20.5-13c2.2,2.4,4.4,4.6,6.7,6.6c2.2,1.9,4.6,3.6,7,4.9
			c2.5,1.4,5.1,2.4,8.1,3.1c2.9,0.7,6.1,1,9.6,1c2.2,0,4.5-0.2,6.8-0.7s4.3-1.2,6.2-2.3c1.9-1,3.4-2.4,4.6-3.9s1.8-3.5,1.8-5.9
			c0-1.6-0.4-3.2-1.2-4.7s-2.2-3-4.2-4.5s-4.7-2.9-8.1-4.2s-7.7-2.7-12.8-3.9c-6.3-1.5-12-3.2-17-5.2s-9.3-4.3-12.8-7
			c-3.5-2.8-6.2-6.1-8.1-9.9s-2.8-8.4-2.8-13.7c0-5.7,1.1-10.9,3.2-15.5c2.2-4.6,5.2-8.5,9-11.7c3.9-3.2,8.4-5.6,13.6-7.3
			s10.8-2.6,16.8-2.6c6.2,0,11.8,0.7,16.8,2.1c5,1.4,9.5,3.2,13.5,5.4s7.5,4.6,10.4,7.4c3,2.8,5.5,5.4,7.5,8l-20.2,13
			c-5-4.8-9.8-8.1-14.3-10.1c-4.5-1.9-9.2-2.9-14.1-2.9c-3,0-5.6,0.4-7.8,1.1s-4,1.7-5.3,2.8c-1.4,1.1-2.5,2.4-3.2,3.8
			c-0.8,1.4-1.1,2.8-1.1,4c0,2.3,0.6,4.4,1.8,6.1c1.2,1.7,3,3.2,5.4,4.6c2.4,1.4,5.4,2.7,8.9,3.9
			C724.5,207.4,728.6,208.6,733.2,209.8z"/>
		<path class="st0" d="M842.1,158.7v122.8h-25.2V180.1h-36.1v-21.4L842.1,158.7L842.1,158.7z M845.8,158.7h32.4v21.4h-21.7
			L845.8,158.7z"/>
		<path class="st0" d="M911.6,158.7h-22.9v22.9C896.3,174,904,166.4,911.6,158.7z"/>
		<path class="st0" d="M888.7,193.9v87.6h25.6V168.3C905.8,176.8,897.3,185.4,888.7,193.9z"/>
		<path class="st0" d="M982.2,209.8c5.6,1.5,10.8,3.2,15.5,5.1c4.7,1.9,8.8,4.1,12.3,6.8s6.1,5.9,8.1,9.6s2.9,8.2,2.9,13.3v0.5
			c0,5.6-1.1,10.8-3.4,15.4c-2.3,4.7-5.4,8.7-9.5,12c-4,3.3-8.8,5.9-14.2,7.7c-5.4,1.8-11.4,2.7-17.8,2.7c-6,0-11.7-0.7-17.1-2.2
			c-5.4-1.5-10.4-3.4-14.8-5.7s-8.3-5.1-11.7-8.1c-3.3-3-5.9-6.1-7.6-9.4l20.5-13c2.2,2.4,4.4,4.6,6.7,6.6c2.2,1.9,4.6,3.6,7,4.9
			c2.5,1.4,5.1,2.4,8.1,3.1c2.9,0.7,6.1,1,9.6,1c2.2,0,4.5-0.2,6.8-0.7s4.3-1.2,6.2-2.3c1.9-1,3.4-2.4,4.6-3.9s1.8-3.5,1.8-5.9
			c0-1.6-0.4-3.2-1.2-4.7s-2.2-3-4.2-4.5s-4.7-2.9-8.1-4.2s-7.7-2.7-12.8-3.9c-6.3-1.5-12-3.2-17-5.2s-9.3-4.3-12.8-7
			c-3.5-2.8-6.2-6.1-8.1-9.9s-2.8-8.4-2.8-13.7c0-5.7,1.1-10.9,3.2-15.5c2.2-4.6,5.2-8.5,9-11.7c3.9-3.2,8.4-5.6,13.6-7.3
			s10.8-2.6,16.8-2.6c6.2,0,11.8,0.7,16.8,2.1c5,1.4,9.5,3.2,13.5,5.4s7.5,4.6,10.4,7.4c3,2.8,5.5,5.4,7.5,8l-20.2,13
			c-5-4.8-9.8-8.1-14.3-10.1c-4.5-1.9-9.2-2.9-14.1-2.9c-3,0-5.6,0.4-7.8,1.1s-4,1.7-5.3,2.8c-1.4,1.1-2.5,2.4-3.2,3.8
			c-0.8,1.4-1.1,2.8-1.1,4c0,2.3,0.6,4.4,1.8,6.1c1.2,1.7,3,3.2,5.4,4.6c2.4,1.4,5.4,2.7,8.9,3.9
			C973.5,207.4,977.6,208.6,982.2,209.8z"/>
		<path class="st0" d="M1087,209.8c5.6,1.5,10.8,3.2,15.5,5.1c4.7,1.9,8.8,4.1,12.3,6.8c3.4,2.7,6.1,5.9,8.1,9.6
			c1.9,3.7,2.9,8.2,2.9,13.3v0.5c0,5.6-1.1,10.8-3.4,15.4c-2.3,4.7-5.4,8.7-9.5,12c-4,3.3-8.8,5.9-14.2,7.7
			c-5.4,1.8-11.4,2.7-17.8,2.7c-6,0-11.7-0.7-17.1-2.2s-10.4-3.4-14.8-5.7s-8.3-5.1-11.7-8.1c-3.3-3-5.9-6.1-7.6-9.4l20.5-13
			c2.2,2.4,4.4,4.6,6.7,6.6c2.2,1.9,4.6,3.6,7,4.9c2.4,1.4,5.1,2.4,8.1,3.1c2.9,0.7,6.1,1,9.6,1c2.2,0,4.5-0.2,6.8-0.7
			s4.3-1.2,6.2-2.3c1.9-1,3.4-2.4,4.6-3.9s1.8-3.5,1.8-5.9c0-1.6-0.4-3.2-1.2-4.7s-2.2-3-4.2-4.5s-4.7-2.9-8.1-4.2
			c-3.4-1.4-7.7-2.7-12.8-3.9c-6.3-1.5-12-3.2-17-5.2s-9.3-4.3-12.8-7c-3.5-2.8-6.2-6.1-8.1-9.9s-2.8-8.4-2.8-13.7
			c0-5.7,1.1-10.9,3.2-15.5c2.2-4.6,5.2-8.5,9-11.7c3.9-3.2,8.4-5.6,13.6-7.3s10.8-2.6,16.8-2.6c6.2,0,11.8,0.7,16.8,2.1
			c5,1.4,9.5,3.2,13.5,5.4s7.4,4.6,10.4,7.4c3,2.8,5.5,5.4,7.4,8l-20.2,13c-5-4.8-9.8-8.1-14.3-10.1c-4.5-1.9-9.2-2.9-14.1-2.9
			c-3,0-5.6,0.4-7.8,1.1s-3.9,1.7-5.3,2.8s-2.5,2.4-3.2,3.8c-0.8,1.4-1.1,2.8-1.1,4c0,2.3,0.6,4.4,1.8,6.1c1.2,1.7,3,3.2,5.4,4.6
			c2.4,1.4,5.4,2.7,8.9,3.9C1078.4,207.4,1082.5,208.6,1087,209.8z"/>
		<path class="st0" d="M1161.9,181v-22.3h-22.3C1147.1,166.1,1154.5,173.6,1161.9,181z"/>
		<path class="st0" d="M1136.3,167.6v113.8h25.6v-88.2C1153.4,184.7,1144.8,176.1,1136.3,167.6z"/>
		<path class="st0" d="M1268.7,158.7h18.9v15.8l-56.6,85.4l-32.1-48.2v69.8h-24.7V158.7h18.9l37.9,57L1268.7,158.7z M1262.9,281.5
			V217l24.7-17v81.5H1262.9z"/>
		<path class="st0" d="M1359.3,157.1c8.7,0,16.7,1.7,24.2,5s14,7.8,19.5,13.5s9.8,12.3,12.9,20s4.7,15.8,4.7,24.5
			c0,7.4-1.1,14.4-3.3,21s-5.4,12.7-9.5,18.1c-4.1,5.4-9,10-14.6,13.8s-11.9,6.5-18.7,8.1l-12.3-20.9c4.9-0.4,9.4-1.7,13.4-4
			s7.5-5.2,10.4-8.8s5.2-7.7,6.8-12.4s2.5-9.7,2.5-15c0-5.5-0.9-10.7-2.7-15.6c-1.8-4.9-4.3-9.2-7.4-12.8c-3.2-3.6-6.9-6.5-11.3-8.6
			s-9.2-3.2-14.5-3.2s-10.1,1.1-14.5,3.2c-4.4,2.1-8.2,5-11.4,8.6s-5.7,7.9-7.5,12.8s-2.7,10.1-2.7,15.6s0.9,10.7,2.7,15.6
			c1.8,4.9,4.3,9.2,7.5,12.8s7,6.5,11.4,8.6s9.2,3.2,14.5,3.2V283c-8.7,0-16.7-1.6-24.2-4.9s-14-7.8-19.5-13.5s-9.8-12.4-12.9-20.1
			s-4.7-15.8-4.7-24.5c0-8.6,1.6-16.8,4.7-24.5s7.4-14.3,12.9-20s12-10.2,19.5-13.5C1342.6,158.8,1350.7,157.1,1359.3,157.1z"/>
	</g>
	<g>
		<path class="st0" d="M319.7,162.2c-5.7-13.2-13.6-24.8-23.6-34.6s-21.6-17.7-34.9-23.4c-13.2-5.7-27.4-8.6-42.4-8.6H79.4v308.9
			c18.8-30.3,69.4-111.5,73.4-118H97.7c9.6-15.5,70.3-113.7,83.9-135.6H285c-3.1,3.1-6.3,6.2-9.4,9.3c-5.4,5.3-60.1,59.1-82.6,81.2
			h62c-12.2,11.3-63.7,59.2-77.3,71.8h41.2c15,0,29.1-2.9,42.4-8.6c13.2-5.7,24.9-13.5,34.9-23.2s17.9-21.2,23.6-34.4
			c5.7-13.2,8.6-27.4,8.6-42.3C328.3,189.6,325.4,175.4,319.7,162.2z"/>
	</g>
</g>
</svg>
